# xmcd CD database file
#
# Track frame offsets:
#	150
#	22797
#	46744
#	56635
#	70882
#	83918
#	102932
#	124041
#	134872
#	149054
#	163942
#	181269
#	191333
#	206819
#
# Disc length: 2918 seconds
#
# Revision: 4
# Processed by: cddbd v1.5.2PL0 Copyright (c) Steve Scherf et al.
# Submitted via: CDex 1.51
#
DISCID=ce0b640e
DTITLE=Various Artist - Guitar Heroes CD2
DYEAR=2000
DGENRE=Blues
TTITLE0=B.B. King - The Thrill Is Gone (live)
TTITLE1=Santana - Persuasion
TTITLE2=Buddy Guy - The First Time I Met The Blues
TTITLE3=Lex Vandyke - Samba Pa Ti
TTITLE4=Otis Rush - All Your Love
TTITLE5=Eric Clapton - Snake Drive
TTITLE6=Mike Bloomfield - Women Loving Eachother
TTITLE7=Elmore James - Stormy Monday
TTITLE8=Jimi Hendrix - Little Wing (live)
TTITLE9=Lex Vandyke - Albatross
TTITLE10=Santana - As The Years Go By
TTITLE11=Canned Heat - Rollin' And Tumblin'
TTITLE12=John Mclaughlin - Dragon Song
TTITLE13=Johnny Winter - Rock and Roll People
EXTD=YEAR: 2000
EXTT0=
EXTT1=
EXTT2=
EXTT3=
EXTT4=
EXTT5=
EXTT6=
EXTT7=
EXTT8=
EXTT9=
EXTT10=
EXTT11=
EXTT12=
EXTT13=
PLAYORDER=
